<?xml version="1.0" standalone="no"?>
<!DOCTYPE svg PUBLIC "-//W3C//DTD SVG 20010904//EN"
 "http://www.w3.org/TR/2001/REC-SVG-20010904/DTD/svg10.dtd">
<svg version="1.0" xmlns="http://www.w3.org/2000/svg"
 width="1920.000000pt" height="1080.000000pt" viewBox="0 0 1920.000000 1080.000000"
 preserveAspectRatio="xMidYMid meet">

<g transform="translate(0.000000,1080.000000) scale(0.100000,-0.100000)"
fill="#000000" stroke="none">
<path d="M9315 9345 c-508 -49 -990 -205 -1396 -451 -830 -502 -1395 -1327
-1548 -2260 -38 -227 -45 -319 -44 -554 0 -440 79 -843 240 -1240 44 -107 184
-378 253 -488 184 -293 453 -599 708 -802 44 -36 81 -67 81 -70 0 -3 -21 -21
-46 -40 -26 -19 -81 -67 -122 -106 -42 -38 -138 -116 -213 -172 -130 -96 -184
-141 -176 -146 2 -1 20 -15 40 -30 32 -24 45 -27 105 -26 94 1 320 -17 368
-31 22 -6 84 -25 139 -42 l99 -31 23 29 c14 18 33 29 52 31 25 2 70 29 196
118 16 12 46 39 66 61 l38 39 83 -36 c46 -20 105 -46 132 -57 26 -11 47 -25
47 -31 0 -5 -20 -41 -44 -78 -24 -37 -67 -107 -96 -157 -29 -49 -69 -112 -90
-140 -20 -27 -43 -61 -50 -75 -7 -14 -36 -56 -64 -95 -29 -38 -57 -81 -63 -95
-6 -14 -35 -55 -64 -91 -52 -64 -69 -86 -173 -234 -27 -38 -67 -89 -89 -112
-22 -23 -41 -52 -42 -63 -2 -27 4 -25 45 10 19 16 43 29 53 30 10 0 42 22 71
50 29 27 57 50 63 50 5 0 22 14 38 30 16 17 35 30 42 30 7 0 13 6 13 14 0 8 8
17 18 21 9 3 40 33 67 66 28 33 62 67 76 74 14 8 34 27 44 42 10 15 24 32 32
36 7 4 13 13 13 19 0 7 11 24 25 38 14 14 44 55 68 90 27 41 50 65 62 65 12 0
41 33 84 96 36 53 81 112 99 133 17 20 32 40 32 44 0 4 24 33 53 65 l52 58
122 -28 121 -28 6 -33 c3 -18 3 -54 1 -80 -7 -72 -26 -580 -28 -733 -1 -83 -6
-141 -13 -150 -6 -8 -15 -24 -18 -36 -4 -12 -23 -38 -41 -56 l-35 -35 5 -78
c17 -242 28 -353 41 -389 7 -22 14 -53 14 -70 0 -37 22 -107 49 -160 21 -40
108 -135 124 -135 11 0 67 -56 67 -67 0 -25 23 -31 66 -16 33 11 48 12 58 4
10 -8 16 -7 26 4 7 8 21 15 31 15 23 0 23 -1 0 57 -12 32 -17 63 -14 93 13
131 17 626 6 643 -10 16 -19 1166 -9 1173 0 1 66 -3 146 -9 135 -9 452 2 557
20 26 4 34 1 39 -13 4 -11 17 -44 29 -74 13 -30 36 -88 51 -128 15 -40 38 -87
51 -104 13 -18 23 -40 23 -49 0 -10 19 -38 43 -62 61 -65 90 -99 102 -122 7
-13 26 -22 60 -27 28 -5 58 -13 68 -18 45 -26 77 30 57 99 -4 17 -11 58 -15
93 l-7 63 89 13 c48 8 99 15 113 17 14 1 45 8 70 14 48 13 179 32 219 33 13 0
26 -4 30 -10 7 -11 74 -9 111 3 14 4 50 9 80 10 30 1 82 6 115 11 96 15 329 3
350 -17 36 -35 158 20 194 89 24 45 -7 117 -64 151 -47 27 -51 54 -21 134 14
37 24 67 21 67 -8 0 74 223 89 239 8 9 17 39 21 66 4 28 15 61 25 75 10 14 21
36 25 50 4 14 25 45 46 71 22 25 39 52 39 61 0 8 18 43 40 77 22 34 40 67 40
73 0 6 7 19 16 29 24 26 -1 135 -39 170 l-28 26 84 106 c376 466 633 1093 687
1672 6 66 15 147 21 181 12 79 12 242 -1 357 -33 301 -43 374 -66 487 -177
859 -706 1623 -1454 2098 -413 263 -862 422 -1371 487 -168 22 -497 27 -664
10z m1858 -6147 c-4 -7 -6 -20 -5 -29 2 -8 -8 -20 -21 -26 -27 -12 -42 -56
-52 -150 l-7 -63 -41 -10 c-23 -5 -55 -14 -72 -20 -72 -22 -425 -107 -475
-113 -12 -2 -15 12 -15 71 l0 74 145 48 c170 56 275 100 420 173 110 56 137
66 123 45z"/>
<path d="M18785 9309 c-11 -17 1 -21 15 -4 8 9 8 15 2 15 -6 0 -14 -5 -17 -11z"/>
</g>
</svg>
